<?xml version="1.0" encoding="utf-8"?>
<!-- Generator: Adobe Illustrator 19.2.1, SVG Export Plug-In . SVG Version: 6.00 Build 0)  -->
<svg version="1.1" id="layer" xmlns="http://www.w3.org/2000/svg" xmlns:xlink="http://www.w3.org/1999/xlink" x="0px" y="0px"
	 viewBox="0 0 652 652" style="enable-background:new 0 0 652 652;" xml:space="preserve">
<style type="text/css">
	.st0{fill:#231F20;}
</style>
<path class="st0" d="M82.4,308.7l8.4,12.2l-15.9,21.4l-1-1.4l-13.2-17.8l-0.1,0.1l-1.7-2.3l36.5-48.9h-38L20.8,321l37.5,50.2
	l16.5-22l9.1,12.3H84l7.3,9.7l37.5-50.2l-26.7-38.7L82.4,308.7z M59.4,276.2h27.8l-31.9,42.7H27.5L59.4,276.2z M58.3,364.4L27.5,323
	h27.8l17,22.8L58.3,364.4z M91.3,364.4L79,348l-1.7-2.2L94.4,323h27.8L91.3,364.4z M94.4,319l-6.8-10.2l14.6-19.7l20.1,29.9H94.4z"
	/>
<path class="st0" d="M171,307.4c4.2,0,7.5,1.3,10,3.9l5.1-5.1c-4-4-9.1-5.9-15.4-5.9s-11.5,2-15.4,5.9c-4,4-5.9,9.1-5.9,15.4
	s2,11.5,5.9,15.4c4,4,9.1,5.9,15.4,5.9s11.5-2,15.4-5.9v-17.8h-15.5v6.5h7.4v8.5c-2.2,1.1-4.6,1.7-7,1.6c-3.7,0.1-7.2-1.3-9.7-4
	c-2.5-2.8-3.9-6.5-3.7-10.3c-0.2-3.8,1.2-7.5,3.7-10.3C163.8,308.7,167.3,307.2,171,307.4z"/>
<path class="st0" d="M237.3,313.3c0.2-3.4-1.2-6.8-3.7-9.1c-2.5-2.2-5.8-3.4-9.9-3.4h-13.4v41.6h8.3v-16.6h3.4l8.3,16.6h9.1
	l-9.6-17.8C234.6,322.8,237.3,318.8,237.3,313.3z M223.7,319h-5.1v-11.3h5.1c3.1,0,5.3,2.2,5.3,5.6C229,316.7,226.8,319,223.7,319
	L223.7,319z"/>
<path class="st0" d="M276.5,300.9l-18.5,41.6h9.3l3.8-8.9h18.1l3.9,8.9h9.3L284,300.9H276.5z M274,326.4l6.2-15.1l6.2,15.1H274z"/>
<polygon class="st0" points="333.2,317.9 322.7,300.9 313.5,300.9 329.1,325.7 329.1,342.4 337.1,342.4 337.1,325.9 352.9,300.9 
	343.7,300.9 "/>
<path class="st0" d="M386.8,317.9c-3.6-1.4-6.6-3-6.6-5.6c0-2.7,2.2-4.9,4.9-4.9c0.1,0,0.2,0,0.3,0c2.9,0.2,5.6,1.4,7.7,3.5l4.9-4.9
	c-3.5-3.7-8.4-5.7-13.5-5.6c-4,0-7.1,1.2-9.3,3.5c-2.2,2.4-3.4,5.5-3.3,8.8c-0.1,4.5,2.5,8.6,6.6,10.4c1.8,0.8,3.7,1.5,5.5,2.2
	c3.6,1.2,6.6,2.8,6.6,5.4c0,2.6-2.4,5.3-6.2,5.3c-3.1,0-6-1.4-8.8-4.2l-4.9,4.9c4.2,4.2,9.1,6.3,14.5,6.3c4.2,0,7.6-1.2,10-3.6
	c2.4-2.4,3.8-5.7,3.7-9.1C399.1,322.5,392,319.7,386.8,317.9z"/>
<path class="st0" d="M442.2,307.4c4.2,0,7.5,1.3,10,3.9l5.1-5.1c-4-4-9.1-5.9-15.4-5.9s-11.5,2-15.4,5.9c-4,4-5.9,9.1-5.9,15.4
	s2,11.5,5.9,15.4c4,4,9.1,5.9,15.4,5.9s11.5-2,15.4-5.9l-5.1-5c-2.5,2.5-5.9,3.8-10,3.8c-3.7,0.1-7.2-1.3-9.7-4
	c-2.6-2.8-3.9-6.5-3.8-10.2c0-4.2,1.2-7.6,3.7-10.3C434.9,308.7,438.5,307.2,442.2,307.4z"/>
<path class="st0" d="M495.2,300.9l-18.5,41.6h9.3l3.8-8.9H508l3.9,8.9h9.3l-18.4-41.6H495.2z M492.7,326.4l6.2-15.1l6.2,15.1H492.7z
	"/>
<polygon class="st0" points="549.9,300.9 541.9,300.9 541.9,342.4 564.5,342.4 564.5,335.9 549.9,335.9 "/>
<polygon class="st0" points="594.5,324.9 607.5,324.9 607.5,318.4 594.5,318.4 594.5,307.4 609.3,307.4 609.3,300.9 586.5,300.9 
	586.5,342.4 609.6,342.4 609.6,335.9 594.5,335.9 "/>
<path class="st0" d="M618.3,303.5L618.3,303.5c0.4-0.1,0.6-0.4,0.7-0.7c0-0.3-0.1-0.5-0.3-0.7c-0.3-0.2-0.7-0.3-1.1-0.2
	c-0.4,0-0.8,0-1.2,0.1v3.1h0.7v-1.3h0.3c0.4,0,0.6,0.2,0.7,0.5c0,0.3,0.1,0.5,0.3,0.8h0.8c-0.1-0.2-0.2-0.5-0.2-0.8
	C618.9,304,618.6,303.6,618.3,303.5z M617.5,303.3h-0.3v-0.9c0.1,0,0.3,0,0.4,0c0.5,0,0.7,0.2,0.7,0.5S617.9,303.3,617.5,303.3
	L617.5,303.3z"/>
<path class="st0" d="M617.6,300.3c-1.7,0-3.1,1.5-3.1,3.2c0,1.7,1.5,3.1,3.2,3.1c1.7,0,3.1-1.5,3.1-3.2
	C620.8,301.7,619.4,300.3,617.6,300.3C617.6,300.3,617.6,300.3,617.6,300.3z M617.6,305.9c-1.4,0.1-2.6-1-2.7-2.4
	c-0.1-1.4,1-2.6,2.4-2.7s2.6,1,2.7,2.4c0,0.1,0,0.1,0,0.2C620,304.8,619,305.9,617.6,305.9C617.7,305.9,617.6,305.9,617.6,305.9
	L617.6,305.9z"/>
</svg>
